<?xml version="1.0" standalone="no"?>
<!DOCTYPE svg PUBLIC "-//W3C//DTD SVG 20010904//EN"
 "http://www.w3.org/TR/2001/REC-SVG-20010904/DTD/svg10.dtd">
<svg version="1.0" xmlns="http://www.w3.org/2000/svg"
 width="1264.000000pt" height="1264.000000pt" viewBox="0 0 1264.000000 1264.000000"
 preserveAspectRatio="xMidYMid meet">
<metadata>
Created by potrace 1.14, written by Peter Selinger 2001-2017
</metadata>
<g transform="translate(0.000000,1264.000000) scale(0.100000,-0.100000)"
fill="#000000" stroke="none">
<path d="M4739 10156 c-2 -3 -31 -7 -65 -10 -33 -3 -67 -8 -75 -10 -8 -3 -26
-7 -40 -10 -94 -15 -326 -100 -381 -137 -14 -11 -30 -19 -35 -19 -5 0 -32 -16
-62 -35 -29 -19 -57 -35 -62 -35 -5 0 -9 -4 -9 -9 0 -5 -8 -12 -17 -15 -10 -3
-33 -20 -50 -36 -18 -17 -33 -28 -33 -25 0 16 -222 -222 -266 -286 -70 -99
-157 -258 -166 -300 -2 -8 -6 -17 -11 -20 -4 -3 -9 -14 -12 -25 -2 -10 -13
-48 -25 -84 -12 -36 -23 -72 -25 -80 -2 -8 -4 -15 -5 -15 -1 0 -3 -11 -5 -25
-2 -14 -10 -61 -17 -105 -8 -44 -14 -99 -13 -122 0 -24 -2 -43 -5 -43 -9 0 1
-177 15 -285 6 -47 24 -134 37 -179 6 -23 12 -46 14 -52 4 -23 78 -200 103
-248 39 -75 123 -206 133 -206 4 0 8 -5 8 -10 0 -19 54 -74 715 -738 363 -364
661 -666 663 -670 1 -4 -150 -159 -335 -345 -601 -600 -988 -991 -1025 -1037
-42 -52 -88 -118 -88 -127 0 -4 -6 -14 -14 -22 -30 -34 -129 -239 -141 -291
-2 -8 -9 -28 -15 -45 -11 -29 -14 -40 -25 -86 -2 -11 -6 -28 -9 -37 -3 -9 -8
-33 -10 -52 -3 -19 -8 -46 -11 -60 -20 -92 -20 -285 0 -445 7 -60 55 -256 65
-270 4 -5 13 -28 20 -50 34 -105 131 -278 223 -395 70 -90 191 -208 282 -275
64 -48 238 -155 250 -155 3 0 28 -11 57 -24 113 -51 282 -98 413 -114 64 -8
336 -7 395 1 79 12 241 51 300 73 3 1 16 5 30 9 43 14 288 142 312 164 12 12
25 21 29 21 4 0 14 6 21 13 7 6 36 30 63 52 54 43 2502 2488 2548 2545 15 19
49 67 74 105 25 39 50 73 55 76 6 3 9 8 7 10 -1 2 19 48 45 102 27 55 49 104
50 110 1 7 8 22 14 35 7 12 10 22 7 22 -3 0 -1 8 4 18 6 11 12 30 15 43 2 13
11 51 20 84 28 109 40 214 40 345 0 92 -11 237 -18 249 -3 5 -8 26 -11 47 -4
32 -16 78 -59 219 -9 31 -53 131 -79 180 -12 22 -26 50 -32 62 -5 13 -13 23
-17 23 -5 0 -8 4 -8 10 0 11 -40 73 -77 119 -16 18 -32 41 -37 50 -14 25
-2485 2492 -2541 2536 -27 22 -51 43 -53 48 -2 4 -10 7 -18 7 -8 0 -14 3 -14
8 0 9 -133 92 -147 92 -6 0 -16 7 -23 15 -7 8 -16 12 -21 9 -5 -3 -9 0 -9 5 0
6 -4 11 -10 11 -5 0 -35 12 -67 26 -31 15 -62 27 -67 28 -6 1 -16 5 -21 8 -17
10 -170 51 -245 64 -19 4 -44 9 -55 11 -26 6 -341 13 -346 9z"/>
<path d="M1627 7834 c-1 -1 -38 -4 -82 -8 -44 -3 -91 -8 -105 -11 -14 -3 -39
-7 -57 -10 -18 -2 -51 -9 -75 -16 -24 -7 -48 -13 -55 -15 -19 -4 -86 -25 -108
-34 -146 -62 -338 -164 -355 -190 -3 -4 -10 -9 -16 -11 -34 -12 -210 -178
-280 -264 -130 -160 -269 -436 -298 -595 -2 -14 -9 -47 -15 -75 -6 -27 -14
-70 -17 -95 -8 -63 -9 -337 -2 -380 4 -19 10 -57 14 -85 9 -55 11 -64 13 -67
2 -2 4 -14 7 -28 6 -35 33 -119 50 -157 8 -17 14 -34 14 -38 0 -32 152 -302
197 -350 10 -11 26 -30 35 -43 66 -95 250 -254 404 -349 83 -51 310 -147 334
-141 3 1 15 -4 26 -10 12 -6 34 -14 50 -17 16 -3 43 -7 59 -10 17 -3 37 -8 45
-10 61 -17 293 -24 410 -12 134 14 252 41 380 89 77 29 204 90 208 100 2 4 8
8 14 8 15 0 167 103 222 152 27 24 301 295 609 602 l559 560 -559 555 c-561
557 -637 631 -653 631 -5 0 -10 4 -12 9 -10 27 -253 165 -368 208 -30 12 -64
25 -75 29 -11 4 -23 8 -27 9 -5 2 -9 3 -10 5 -3 2 -19 5 -60 13 -15 3 -32 8
-37 11 -5 3 -33 9 -63 12 -29 3 -56 8 -59 10 -9 5 -257 23 -262 18z"/>
<path d="M10888 7835 c-2 -1 -32 -5 -68 -9 -196 -18 -370 -71 -555 -168 -66
-34 -225 -138 -253 -166 -10 -9 -38 -35 -63 -58 -72 -66 -189 -198 -189 -213
0 -5 -4 -11 -9 -13 -12 -4 -114 -174 -141 -234 -55 -123 -71 -166 -77 -199 -3
-16 -9 -37 -14 -46 -4 -9 -11 -31 -14 -50 -3 -19 -8 -41 -10 -49 -38 -136 -38
-441 0 -606 8 -34 16 -73 19 -85 14 -74 94 -266 156 -374 82 -144 221 -306
350 -408 36 -29 67 -55 68 -59 2 -5 7 -8 12 -8 5 0 43 -23 84 -50 42 -27 78
-50 82 -50 3 0 39 -16 79 -35 41 -20 82 -38 92 -40 10 -3 51 -16 91 -30 40
-14 90 -28 110 -31 20 -3 53 -9 72 -14 152 -38 438 -27 638 24 12 3 32 8 43
11 35 7 91 26 134 45 124 55 182 83 197 97 10 9 18 12 18 7 0 -5 4 -4 8 2 4 5
25 21 47 34 22 13 45 28 50 32 6 5 39 31 74 58 80 62 170 155 242 245 358 453
423 1070 168 1593 -40 82 -140 239 -189 297 -107 126 -294 284 -410 346 -25
13 -46 27 -48 32 -2 4 -9 7 -17 7 -7 0 -32 11 -56 24 -45 25 -230 91 -284 101
-16 3 -40 8 -52 10 -62 13 -81 16 -123 21 -46 5 -258 12 -262 9z"/>
</g>
</svg>
