<svg width="60" height="60" viewBox="0 0 60 60" fill="none" xmlns="http://www.w3.org/2000/svg">
<path fill-rule="evenodd" clip-rule="evenodd" d="M33 7.91892C33 8.60334 33.4633 9.20098 34.1261 9.37157L35.2522 9.66142C37.1771 10.1568 38.9957 10.9188 40.6669 11.9065L41.6683 12.4983C42.2577 12.8466 43.0081 12.7517 43.4921 12.2676L45.9096 9.85018C46.4953 9.26439 47.4451 9.26439 48.0309 9.85018L50.1522 11.9715C50.738 12.5573 50.738 13.507 50.1522 14.0928L47.7343 16.5107C47.2503 16.9947 47.1553 17.745 47.5035 18.3344L48.0951 19.3357C49.082 21.0061 49.8434 22.8239 50.3386 24.7478L50.6284 25.8739C50.799 26.5367 51.3967 27 52.0811 27L55.5 27C56.3284 27 57 27.6716 57 28.5V31.5C57 32.3284 56.3284 33 55.5 33H52.0811C51.3967 33 50.799 33.4633 50.6284 34.1261L50.3386 35.2522C49.8432 37.177 49.0813 38.9956 48.0936 40.6667L47.5019 41.6681C47.1536 42.2575 47.2485 43.0079 47.7325 43.4919L50.1523 45.9117C50.7381 46.4975 50.7381 47.4473 50.1523 48.033L48.031 50.1544C47.4452 50.7401 46.4955 50.7401 45.9097 50.1544L43.4895 47.7341C43.0055 47.2501 42.2552 47.1552 41.6658 47.5034L40.6645 48.095C38.994 49.0819 37.1762 49.8434 35.2522 50.3386L34.1261 50.6284C33.4633 50.799 33 51.3967 33 52.0811V55.5C33 56.3284 32.3284 57 31.5 57H28.5C27.6716 57 27 56.3284 27 55.5L27 52.0811C27 51.3967 26.5367 50.799 25.8739 50.6284L24.7478 50.3386C22.8239 49.8434 21.0061 49.082 19.3357 48.0951L18.3344 47.5035C17.745 47.1553 16.9947 47.2503 16.5107 47.7343L14.0898 50.1553C13.504 50.7411 12.5542 50.7411 11.9684 50.1553L9.84711 48.0339C9.26132 47.4482 9.26132 46.4984 9.84711 45.9126L12.2676 43.4921C12.7517 43.0081 12.8466 42.2576 12.4983 41.6683L11.9065 40.6669C10.9188 38.9957 10.1568 37.1771 9.66142 35.2522L9.37158 34.1261C9.20098 33.4633 8.60334 33 7.91892 33H4.5C3.67157 33 3 32.3284 3 31.5L3 28.5C3 27.6716 3.67157 27 4.5 27H7.91892C8.60334 27 9.20098 26.5367 9.37157 25.8739L9.66142 24.7478C10.1566 22.8238 10.9181 21.006 11.905 19.3355L12.4966 18.3342C12.8448 17.7448 12.7499 16.9945 12.2659 16.5105L9.84725 14.0919C9.26146 13.5061 9.26146 12.5564 9.84725 11.9706L11.9686 9.84927C12.5544 9.26348 13.5041 9.26348 14.0899 9.84927L16.5081 12.2675C16.9921 12.7515 17.7425 12.8464 18.3319 12.4981L19.3333 11.9064C21.0044 10.9187 22.823 10.1568 24.7478 9.66142L25.8739 9.37157C26.5367 9.20098 27 8.60334 27 7.91892V4.5C27 3.67157 27.6716 3 28.5 3L31.5 3C32.3284 3 33 3.67157 33 4.5V7.91892ZM15.1505 6.66729L17.8069 9.32367C19.7171 8.19476 21.7974 7.32302 24 6.7561V3C24 1.34315 25.3431 0 27 0L33 0C34.6569 0 36 1.34315 36 3V6.7561C38.2027 7.32304 40.283 8.19482 42.1933 9.3238L44.8489 6.6682C46.0205 5.49662 47.92 5.49662 49.0915 6.6682L53.3342 10.9108C54.5057 12.0824 54.5057 13.9819 53.3342 15.1535L50.678 17.8097C51.8061 19.7192 52.6773 21.7984 53.2439 24L57 24C58.6569 24 60 25.3431 60 27V33C60 34.6569 58.6569 36 57 36H53.2439C52.677 38.2026 51.8052 40.2829 50.6763 42.1931L53.3343 44.8511C54.5059 46.0226 54.5059 47.9221 53.3343 49.0937L49.0917 53.3363C47.9201 54.5079 46.0206 54.5079 44.849 53.3363L42.1905 50.6778C40.281 51.806 38.2016 52.6772 36 53.2439V57C36 58.6569 34.6569 60 33 60H27C25.3431 60 24 58.6569 24 57L24 53.2439C21.7984 52.6773 19.7192 51.8061 17.8097 50.678L15.1504 53.3372C13.9788 54.5088 12.0793 54.5088 10.9078 53.3372L6.66513 49.0946C5.49356 47.923 5.49356 46.0235 6.66513 44.852L9.3238 42.1933C8.19482 40.283 7.32304 38.2027 6.75611 36H3C1.34315 36 0 34.6569 0 33L0 27C0 25.3431 1.34315 24 3 24H6.7561C7.32277 21.7984 8.19398 19.719 9.32216 17.8095L6.66527 15.1526C5.49369 13.981 5.49369 12.0815 6.66527 10.9099L10.9079 6.66729C12.0795 5.49572 13.979 5.49572 15.1505 6.66729ZM40.5 30C39.6716 30 39.0131 30.6766 38.8766 31.4937C38.1708 35.7192 34.5209 38.9478 30.1072 38.9994C30.0379 39.0002 29.9686 39.0002 29.8994 38.9994C24.9752 38.9455 21 34.937 21 30C21 25.0294 25.0294 21 30 21C30.2707 21 30.5387 21.0119 30.8034 21.0354L28.9113 21.9665C28.168 22.3323 27.862 23.2314 28.2278 23.9747C28.5936 24.718 29.4927 25.024 30.236 24.6582L35.5082 22.0635C35.5451 22.0488 35.5818 22.0326 35.618 22.0147C36.0446 21.8048 36.3272 21.4191 36.4214 20.9881C36.4499 20.8603 36.4617 20.7283 36.4559 20.5958C36.4509 20.4377 36.4194 20.2823 36.3619 20.1371C36.3446 20.0911 36.325 20.0456 36.3028 20.0006C36.2869 19.9682 36.2699 19.9366 36.252 19.9058L33.6521 14.6232C33.2863 13.8799 32.3872 13.5739 31.6439 13.9397C30.9006 14.3055 30.5946 15.2046 30.9604 15.9479L32.0578 18.1777C31.2281 18.0333 30.3807 17.9758 29.5289 18.0092C26.8355 18.1151 24.2563 19.1246 22.2066 20.8751C20.157 22.6257 18.7564 25.0153 18.2306 27.6589C17.7047 30.3025 18.0842 33.0462 19.3079 35.4479C20.5316 37.8495 22.5283 39.7692 24.9761 40.8977C27.4239 42.0262 30.1804 42.2977 32.8014 41.6684C35.4223 41.0392 37.7551 39.5459 39.4238 37.4291C40.4618 36.1124 41.2053 34.6022 41.619 33C41.7464 32.5064 41.8426 32.0042 41.9064 31.4961C42.0097 30.6741 41.3284 30 40.5 30Z" fill="#F8F7F7"/>
</svg>
