<svg width="60" height="60" viewBox="0 0 60 60" fill="none" xmlns="http://www.w3.org/2000/svg">
<path d="M58.5 18C57.6716 18 57 17.3284 57 16.5V5.12155L48.182 13.9396C47.5962 14.5254 46.6464 14.5254 46.0607 13.9396C45.4749 13.3538 45.4749 12.404 46.0607 11.8182L54.8789 3L43.5 3C42.6716 3 42 2.32843 42 1.5C42 0.671572 42.6716 0 43.5 0L58.5 0C59.3284 0 60 0.671572 60 1.5V16.5C60 17.3284 59.3284 18 58.5 18Z" fill="#F8F7F7"/>
<path d="M19.5 28.5C18.6716 28.5 18 29.1716 18 30C18 30.8284 18.6716 31.5 19.5 31.5H22.5C23.3284 31.5 24 30.8284 24 30C24 29.1716 23.3284 28.5 22.5 28.5H19.5Z" fill="#F8F7F7"/>
<path d="M27 30C27 29.1716 27.6716 28.5 28.5 28.5H31.5C32.3284 28.5 33 29.1716 33 30C33 30.8284 32.3284 31.5 31.5 31.5H28.5C27.6716 31.5 27 30.8284 27 30Z" fill="#F8F7F7"/>
<path d="M37.5 28.5C36.6716 28.5 36 29.1716 36 30C36 30.8284 36.6716 31.5 37.5 31.5H40.5C41.3284 31.5 42 30.8284 42 30C42 29.1716 41.3284 28.5 40.5 28.5H37.5Z" fill="#F8F7F7"/>
<path fill-rule="evenodd" clip-rule="evenodd" d="M48 30C48 39.9411 39.9411 48 30 48C20.0589 48 12 39.9411 12 30C12 20.0589 20.0589 12 30 12C39.9411 12 48 20.0589 48 30ZM45 30C45 38.2843 38.2843 45 30 45C21.7157 45 15 38.2843 15 30C15 21.7157 21.7157 15 30 15C38.2843 15 45 21.7157 45 30Z" fill="#F8F7F7"/>
<path d="M58.5 42C57.6716 42 57 42.6716 57 43.5V54.8785L48.182 46.0604C47.5962 45.4746 46.6464 45.4746 46.0607 46.0604C45.4749 46.6462 45.4749 47.596 46.0607 48.1818L54.8789 57H43.5C42.6716 57 42 57.6716 42 58.5C42 59.3284 42.6716 60 43.5 60H58.5C59.3284 60 60 59.3284 60 58.5V43.5C60 42.6716 59.3284 42 58.5 42Z" fill="#F8F7F7"/>
<path d="M3 43.5C3 42.6716 2.32843 42 1.5 42C0.671572 42 0 42.6716 0 43.5L0 58.5C0 59.3284 0.671572 60 1.5 60H16.5C17.3284 60 18 59.3284 18 58.5C18 57.6716 17.3284 57 16.5 57H5.12109L13.9393 48.1818C14.5251 47.596 14.5251 46.6462 13.9393 46.0604C13.3536 45.4746 12.4038 45.4746 11.818 46.0604L3 54.8785L3 43.5Z" fill="#F8F7F7"/>
<path d="M3 16.5C3 17.3284 2.32843 18 1.5 18C0.671572 18 0 17.3284 0 16.5L0 1.5C0 0.671572 0.671572 0 1.5 0L16.5 0C17.3284 0 18 0.671572 18 1.5C18 2.32843 17.3284 3 16.5 3L5.12109 3L13.9393 11.8182C14.5251 12.404 14.5251 13.3538 13.9393 13.9396C13.3536 14.5254 12.4038 14.5254 11.818 13.9396L3 5.12155L3 16.5Z" fill="#F8F7F7"/>
</svg>
