<svg width="60" height="60" viewBox="0 0 60 60" fill="none" xmlns="http://www.w3.org/2000/svg">
<path fill-rule="evenodd" clip-rule="evenodd" d="M10.5 17.8756C14.7566 17.1614 18 13.4595 18 9C18 4.02944 13.9706 0 9 0C4.02944 0 0 4.02944 0 9C0 13.4595 3.24343 17.1614 7.5 17.8756L7.5 42.1244C3.24343 42.8386 0 46.5405 0 51C0 55.9706 4.02944 60 9 60C13.9706 60 18 55.9706 18 51C18 47.2189 15.6684 43.9825 12.3645 42.65L15.7393 32.5257C15.9434 31.9131 16.5166 31.5 17.1623 31.5L48 31.5C50.4853 31.5 52.5 29.4853 52.5 27L52.5 17.8756C56.7566 17.1614 60 13.4595 60 9C60 4.02944 55.9706 0 51 0C46.0294 0 42 4.02944 42 9C42 13.4595 45.2434 17.1614 49.5 17.8756L49.5 27C49.5 27.8284 48.8284 28.5 48 28.5L17.1623 28.5C15.2253 28.5 13.5057 29.7394 12.8932 31.577L10.5 38.7566L10.5 17.8756ZM15 9C15 12.3137 12.3137 15 9 15C5.68629 15 3 12.3137 3 9C3 5.68629 5.68629 3 9 3C12.3137 3 15 5.68629 15 9ZM51 15C54.3137 15 57 12.3137 57 9C57 5.68629 54.3137 3 51 3C47.6863 3 45 5.68629 45 9C45 12.3137 47.6863 15 51 15ZM9 45C5.68629 45 3 47.6863 3 51C3 54.3137 5.68629 57 9 57C12.3137 57 15 54.3137 15 51C15 47.6863 12.3137 45 9 45Z" fill="#F8F7F7"/>
</svg>
