<svg width="60" height="60" viewBox="0 0 60 60" fill="none" xmlns="http://www.w3.org/2000/svg">
<path fill-rule="evenodd" clip-rule="evenodd" d="M14.5634 24.6075C14.613 24.4066 14.6585 24.2041 14.6999 24L45.3001 24C45.3415 24.2042 45.3871 24.4069 45.4367 24.6079C46.0028 26.9003 47.096 28.985 48.5802 30.7261C49.0537 31.2815 49.5669 31.8019 50.1156 32.2829C51.8881 33.837 54.03 34.9801 56.3924 35.5633C56.5933 35.6129 56.7959 35.6585 57 35.6999V42.3001C56.7959 42.3415 56.5933 42.3871 56.3924 42.4367C54.0867 43.0059 51.9912 44.1085 50.244 45.6058C49.6998 46.0721 49.1895 46.5768 48.7171 47.1156C47.1631 48.8881 46.02 51.0298 45.4367 53.3921C45.3871 53.5932 45.3415 53.7958 45.3001 54L14.6999 54C14.6585 53.796 14.613 53.5934 14.5634 53.3925C13.2336 48.0063 8.99382 43.7665 3.60766 42.4367C3.40668 42.3871 3.20409 42.3415 3 42.3001L3 35.6999C3.20409 35.6585 3.40668 35.6129 3.60766 35.5633C8.99381 34.2335 13.2336 29.9937 14.5634 24.6075ZM34.5 31.5L31.5 31.5V30C31.5 29.1716 30.8284 28.5 30 28.5C29.1716 28.5 28.5 29.1716 28.5 30V31.5H25.5C24.6716 31.5 24 32.1716 24 33L24 39C24 39.8284 24.6716 40.5 25.5 40.5H33V43.5H25.5C24.6716 43.5 24 44.1716 24 45C24 45.8284 24.6716 46.5 25.5 46.5H28.5V48C28.5 48.8284 29.1716 49.5 30 49.5C30.8284 49.5 31.5 48.8284 31.5 48V46.5H34.5C35.3284 46.5 36 45.8284 36 45V39C36 38.1716 35.3284 37.5 34.5 37.5H27L27 34.5L34.5 34.5C35.3284 34.5 36 33.8284 36 33C36 32.1716 35.3284 31.5 34.5 31.5ZM11.4929 24C11.5583 24 11.6061 24.0617 11.5891 24.1248C11.3152 25.1431 10.9107 26.1078 10.3946 27C9.34078 28.8218 7.82177 30.3408 6 31.3946C5.10784 31.9107 4.14307 32.3152 3.12476 32.5891C3.06166 32.6061 3 32.5583 3 32.493L3 24.5C3 24.2239 3.22386 24 3.5 24L11.4929 24ZM3 53.5C3 53.7761 3.22386 54 3.5 54H11.4929C11.5583 54 11.6061 53.9383 11.5891 53.8752C11.3152 52.8569 10.9107 51.8922 10.3946 51C9.34078 49.1782 7.82177 47.6592 6 46.6054C5.10784 46.0893 4.14307 45.6848 3.12476 45.4109C3.06166 45.3939 3 45.4417 3 45.507L3 53.5ZM56.5 54C56.7761 54 57 53.7761 57 53.5V45.507C57 45.4417 56.9383 45.3939 56.8752 45.4109C55.8569 45.6848 54.8922 46.0893 54 46.6054C53.2149 47.0596 52.486 47.6001 51.8263 48.2141C51.615 48.4108 51.4108 48.615 51.2141 48.8263C50.6001 49.486 50.0596 50.2149 49.6054 51C49.0893 51.8922 48.6848 52.8569 48.4109 53.8752C48.3939 53.9383 48.4417 54 48.507 54H56.5ZM54 31.3946C54.8922 31.9107 55.8569 32.3152 56.8752 32.5891C56.9383 32.6061 57 32.5583 57 32.493L57 24.5C57 24.2239 56.7761 24 56.5 24L48.507 24C48.4417 24 48.3939 24.0617 48.4109 24.1248C48.6848 25.1431 49.0893 26.1078 49.6054 27C50.0596 27.7851 50.6001 28.514 51.2141 29.1737C51.4108 29.385 51.615 29.5892 51.8263 29.7859C52.486 30.3999 53.2149 30.9404 54 31.3946ZM40.5 6C41.3284 6 42 5.32843 42 4.5C42 3.67157 41.3284 3 40.5 3L19.5 3C18.6716 3 18 3.67157 18 4.5C18 5.32843 18.6716 6 19.5 6L40.5 6ZM46.5 12C47.3284 12 48 11.3284 48 10.5C48 9.67157 47.3284 9 46.5 9L13.5 9C12.6716 9 12 9.67157 12 10.5C12 11.3284 12.6716 12 13.5 12L46.5 12ZM52.5 18C53.3284 18 54 17.3284 54 16.5C54 15.6716 53.3284 15 52.5 15L7.5 15C6.67157 15 6 15.6716 6 16.5C6 17.3284 6.67157 18 7.5 18L52.5 18ZM0 24C0 22.3431 1.34315 21 3 21L57 21C58.6569 21 60 22.3431 60 24L60 54C60 55.6569 58.6569 57 57 57L3 57C1.34315 57 0 55.6569 0 54L0 24Z" fill="#F8F7F7"/>
</svg>
