<svg width="60" height="60" viewBox="0 0 60 60" fill="none" xmlns="http://www.w3.org/2000/svg">
<path fill-rule="evenodd" clip-rule="evenodd" d="M38.9971 22.8604C38.9971 27.8309 34.9676 31.8604 29.9971 31.8604C25.0265 31.8604 20.9971 27.8309 20.9971 22.8604C20.9971 17.8898 25.0265 13.8604 29.9971 13.8604C34.9676 13.8604 38.9971 17.8898 38.9971 22.8604ZM35.9971 22.8604C35.9971 26.1741 33.3108 28.8604 29.9971 28.8604C26.6834 28.8604 23.9971 26.1741 23.9971 22.8604C23.9971 19.5466 26.6834 16.8604 29.9971 16.8604C33.3108 16.8604 35.9971 19.5466 35.9971 22.8604Z" fill="#F8F7F7"/>
<path fill-rule="evenodd" clip-rule="evenodd" d="M11.9043 30.987C5.99513 17.8555 15.6005 3 30.0002 3C44.039 3 53.6386 17.1789 48.4247 30.2136L37.0199 52.7257C35.9873 55.3073 33.487 57 30.7066 57C28.0309 57 25.604 55.4308 24.506 52.9908L11.9043 30.987ZM45.6393 29.0994L34.2344 51.6116C33.6574 53.0541 32.2603 54 30.7066 54C29.2115 54 27.8553 53.1231 27.2418 51.7597L14.6401 29.7559C9.62424 18.6096 17.7774 6 30.0002 6C41.9166 6 50.0649 18.0353 45.6393 29.0994Z" fill="#F8F7F7"/>
</svg>
