<svg width="60" height="60" viewBox="0 0 60 60" fill="none" xmlns="http://www.w3.org/2000/svg">
<path fill-rule="evenodd" clip-rule="evenodd" d="M46.2111 4.31802C47.9684 2.56066 50.8177 2.56066 52.575 4.31802L56.8177 8.56066C58.575 10.318 58.575 13.1673 56.8177 14.9246L35.9256 35.8167C35.5068 36.2355 34.9734 36.521 34.3927 36.6371L24.2314 38.6694C23.1818 38.8793 22.2564 37.9539 22.4664 36.9043L24.4986 26.7431C24.6148 26.1623 24.9002 25.6289 25.319 25.2101L46.2111 4.31802ZM50.4537 6.43934C49.8679 5.85355 48.9182 5.85355 48.3324 6.43934L45.1256 9.64618L51.4895 16.0101L54.6964 12.8033C55.2822 12.2175 55.2822 11.2678 54.6964 10.682L50.4537 6.43934ZM27.7615 27.0103L43.0042 11.7675L49.3682 18.1315L34.1255 33.3742C33.916 33.5836 33.6493 33.7264 33.359 33.7844L25.8494 35.2864L27.3513 27.7767C27.4094 27.4864 27.5521 27.2197 27.7615 27.0103Z" fill="#F8F7F7"/>
<path d="M34.5 4.13604C35.3284 4.13604 36 4.80761 36 5.63604C36 6.46447 35.3284 7.13604 34.5 7.13604L7.5 7.13604C6.67157 7.13604 6 7.80761 6 8.63604L6 53.636C6 54.4645 6.67157 55.136 7.5 55.136L52.5 55.136C53.3284 55.136 54 54.4645 54 53.636V26.636C54 25.8076 54.6716 25.136 55.5 25.136C56.3284 25.136 57 25.8076 57 26.636V55.136C57 56.7929 55.6569 58.136 54 58.136L6 58.136C4.34315 58.136 3 56.7929 3 55.136L3 7.13604C3 5.47918 4.34315 4.13604 6 4.13604L34.5 4.13604Z" fill="#F8F7F7"/>
</svg>
