<svg width="12" height="12" viewBox="0 0 12 12" fill="none" xmlns="http://www.w3.org/2000/svg">
<path fill-rule="evenodd" clip-rule="evenodd" d="M11.6872 1.02006C11.8825 0.824795 11.8825 0.508213 11.6872 0.312951C11.492 0.117688 11.1754 0.117688 10.9801 0.312951L6.00033 5.29273L1.02055 0.312951C0.825285 0.117688 0.508702 0.117688 0.31344 0.312951C0.118178 0.508213 0.118178 0.824795 0.31344 1.02006L5.29322 5.99984L0.313439 10.9796C0.118177 11.1749 0.118177 11.4915 0.313439 11.6867C0.508702 11.882 0.825283 11.882 1.02055 11.6867L6.00033 6.70694L10.9801 11.6867C11.1754 11.882 11.492 11.882 11.6872 11.6867C11.8825 11.4915 11.8825 11.1749 11.6872 10.9796L6.70743 5.99984L11.6872 1.02006Z" fill="#B5B1B1"/>
</svg>
