<svg width="117" height="75" viewBox="0 0 117 75" fill="none" xmlns="http://www.w3.org/2000/svg">
    <path
        d="M70.6905 17.2989C68.9138 15.5242 66.5052 14.5273 63.994 14.5273C61.4828 14.5273 59.0742 15.5242 57.2975 17.2989L42.5433 32.0531C40.865 33.8487 39.9501 36.226 39.9916 38.6834C40.0331 41.1408 41.0277 43.4859 42.7656 45.2238C44.5035 46.9617 46.8486 47.9563 49.306 47.9978C51.7634 48.0393 54.1407 47.1244 55.9363 45.4461L70.6905 30.6995C72.4652 28.9227 73.4621 26.5142 73.4621 24.003C73.4621 21.4917 72.4652 19.0832 70.6905 17.3065"
        fill="#3998FF" />
    <path
        d="M97.0232 23.9764C97.0202 25.8424 96.4641 27.6656 95.4253 29.2157C94.3864 30.7658 92.9114 31.9731 91.1866 32.6851C89.4618 33.3971 87.5646 33.5819 85.7348 33.216C83.9051 32.8501 82.2248 31.9501 80.9064 30.6295C79.588 29.309 78.6906 27.6273 78.3277 25.797C77.9648 23.9666 78.1526 22.0698 78.8673 20.3461C79.5821 18.6224 80.7918 17.1493 82.3435 16.113C83.8952 15.0766 85.7193 14.5234 87.5853 14.5234C90.0898 14.5274 92.4903 15.5252 94.2598 17.2975C96.0293 19.0698 97.0232 21.472 97.0232 23.9764Z"
        fill="#6BF7AA" />
    <path
        d="M70.6905 30.7003C69.8113 31.5799 68.7673 32.2777 67.6183 32.7538C66.4693 33.2299 65.2377 33.475 63.994 33.475C62.7503 33.475 61.5187 33.2299 60.3697 32.7538C59.2207 32.2777 58.1768 31.5799 57.2975 30.7003L42.5433 15.946C40.865 14.1505 39.9501 11.7731 39.9916 9.31575C40.0331 6.85837 41.0277 4.51324 42.7656 2.77536C44.5035 1.03749 46.8486 0.0428333 49.306 0.00135135C51.7634 -0.0401306 54.1407 0.874804 55.9363 2.55304L70.6905 17.2997C71.5702 18.179 72.268 19.2229 72.7441 20.3719C73.2201 21.5209 73.4652 22.7525 73.4652 23.9962C73.4652 25.2399 73.2201 26.4715 72.7441 27.6205C72.268 28.7695 71.5702 29.8135 70.6905 30.6927"
        fill="#3998FF" />
    <path
        d="M73.42 23.0929C73.2488 21.3032 72.572 19.5992 71.4686 18.1798C70.3652 16.7603 68.8808 15.6841 67.1887 15.0767C65.4965 14.4693 63.6665 14.3558 61.9123 14.7495C60.1581 15.1432 58.5521 16.0279 57.2818 17.3001L50.5967 23.9777L57.2818 30.7007C58.4968 31.917 60.0201 32.7796 61.6882 33.1959C63.3563 33.6121 65.1062 33.5663 66.7502 33.0634C68.3943 32.5605 69.8703 31.6194 71.0201 30.3412C72.1698 29.0629 72.9498 27.4957 73.2763 25.8078C73.3368 25.5104 73.3797 25.2104 73.4049 24.9079C73.4301 24.6054 73.4452 24.3029 73.4502 24.0004C73.4502 23.6979 73.4351 23.3954 73.4049 23.0929"
        fill="#2E59F5" />
    <path
        d="M19.9998 23.0927C20.1756 21.3092 20.8537 19.6121 21.9552 18.1984C23.0568 16.7847 24.5366 15.7124 26.2231 15.1059C27.9095 14.4995 29.7334 14.3837 31.483 14.772C33.2326 15.1604 34.8362 16.0369 36.1077 17.2999L42.8231 23.9775L36.1077 30.7005C34.8927 31.9169 33.3694 32.7795 31.7013 33.1957C30.0332 33.6119 28.2833 33.5662 26.6393 33.0632C24.9952 32.5603 23.5192 31.6192 22.3694 30.341C21.2197 29.0627 20.4397 27.4956 20.1132 25.8076C20.0527 25.5102 20.0098 25.2102 19.9846 24.9077C19.9594 24.6052 19.9493 24.2952 19.9544 23.9775C19.9544 23.675 19.9695 23.3726 19.9998 23.0701"
        fill="#ED2B7A" />
    <path
        d="M10.339 69.4681C10.3708 70.1193 10.2653 70.7699 10.0294 71.3777C9.79345 71.9855 9.43237 72.537 8.96957 72.9962C8.50677 73.4554 7.95258 73.8122 7.34297 74.0434C6.73336 74.2746 6.08194 74.3751 5.431 74.3383C4.7372 74.373 4.04352 74.2676 3.39134 74.0283C2.73917 73.7891 2.14186 73.421 1.63505 72.9459C1.12824 72.4708 0.722322 71.8985 0.441501 71.2631C0.160681 70.6277 0.0107159 69.9423 0.000553572 69.2477C-0.00960871 68.5531 0.12024 67.8636 0.382352 67.2203C0.644465 66.577 1.03347 65.993 1.52616 65.5033C2.01885 65.0136 2.60514 64.6282 3.25004 64.37C3.89493 64.1118 4.58523 63.9861 5.27975 64.0005C6.13698 63.9817 6.98506 64.1799 7.74525 64.5765C8.50544 64.9731 9.15311 65.5554 9.62813 66.2692L7.69215 67.3809C7.41524 67.0013 7.04858 66.6963 6.62497 66.493C6.20135 66.2898 5.73398 66.1947 5.26463 66.2163C4.87632 66.2292 4.49436 66.3184 4.14055 66.479C3.78675 66.6395 3.46802 66.8681 3.20258 67.1518C2.93713 67.4355 2.73017 67.7687 2.5935 68.1324C2.45683 68.4961 2.39313 68.8832 2.40604 69.2715C2.41895 69.6598 2.50822 70.0417 2.66874 70.3955C2.82927 70.7494 3.05791 71.0681 3.34161 71.3335C3.62531 71.599 3.95852 71.8059 4.32221 71.9426C4.6859 72.0793 5.07294 72.143 5.46125 72.1301C5.9912 72.1854 6.52484 72.068 6.9827 71.7955C7.44056 71.5229 7.79815 71.1098 8.00221 70.6176H5.35537V68.5984H10.3466L10.339 69.4681Z"
        fill="white" />
    <path
        d="M19.3602 72.5769H15.6622L15.1858 74.1423H12.6826L16.063 64.175H18.967L22.3474 74.1196H19.8593L19.3602 72.5769ZM18.6796 70.4443L17.515 66.7916L16.3428 70.4518L18.6796 70.4443Z"
        fill="white" />
    <path
        d="M24.4727 71.8812L26.4313 70.7469C26.584 71.1709 26.8698 71.534 27.246 71.7821C27.6223 72.0302 28.0687 72.1499 28.5185 72.1232C29.6 72.1232 29.8722 71.6997 29.8722 71.314C29.8722 70.7015 29.305 70.4595 27.8152 70.0511C26.3254 69.6427 24.8886 68.9319 24.8886 67.0262C24.8886 65.1204 26.5069 64.0012 28.2312 64.0012C28.9939 63.9771 29.7467 64.1798 30.3942 64.5836C31.0417 64.9875 31.5548 65.5743 31.8687 66.2699L29.9478 67.3892C29.8211 67.0399 29.5863 66.7402 29.2776 66.5334C28.9689 66.3267 28.6024 66.2238 28.2312 66.2397C27.5203 66.2397 27.1649 66.5951 27.1649 66.9959C27.1649 67.3967 27.4069 67.7521 28.9572 68.2361C30.5074 68.7201 32.1561 69.2193 32.1561 71.3216C32.1561 73.2424 30.6436 74.3466 28.458 74.3466C26.2725 74.3466 25.0171 73.3483 24.4727 71.8812Z"
        fill="white" />
    <path
        d="M42.4484 67.6089C42.4425 68.0591 42.3477 68.5037 42.1695 68.9171C41.9913 69.3306 41.7331 69.7048 41.4099 70.0182C41.0866 70.3316 40.7047 70.578 40.2859 70.7434C39.8671 70.9088 39.4198 70.9897 38.9697 70.9817H37.4572V74.105H35.1885V64.1756H38.9697C39.423 64.1676 39.8734 64.2498 40.2946 64.4175C40.7158 64.5852 41.0995 64.835 41.4232 65.1525C41.747 65.4699 42.0043 65.8485 42.1803 66.2663C42.3563 66.6842 42.4474 67.1328 42.4484 67.5862M40.1797 67.5862C40.1878 67.422 40.1626 67.2577 40.1056 67.1035C40.0486 66.9492 39.9609 66.8081 39.8478 66.6886C39.7347 66.5692 39.5986 66.4739 39.4477 66.4085C39.2968 66.3431 39.1341 66.309 38.9697 66.3082H37.4572V68.8643H38.9697C39.2913 68.8524 39.5952 68.7137 39.8148 68.4785C40.0345 68.2432 40.1521 67.9306 40.1418 67.6089"
        fill="white" />
    <path
        d="M50.412 72.5769H46.714L46.1922 74.1423H43.7344L47.1148 64.175H50.0112L53.3916 74.1196H50.9035L50.412 72.5769ZM49.7314 70.4443L48.5667 66.7916L47.3946 70.4518L49.7314 70.4443Z"
        fill="white" />
    <path
        d="M59.5923 70.8753H58.5109V74.1423H56.2422V64.1751H60.22C60.6682 64.1741 61.1121 64.2616 61.5264 64.4326C61.9406 64.6037 62.317 64.8549 62.6339 65.1718C62.9508 65.4887 63.202 65.8651 63.3731 66.2793C63.5441 66.6936 63.6316 67.1375 63.6306 67.5857C63.62 68.1878 63.4436 68.7753 63.1207 69.2837C62.7978 69.792 62.341 70.2014 61.8005 70.467L63.918 74.1196H61.4678L59.5923 70.8753ZM58.5109 68.8864H60.2124C60.5274 68.8521 60.8187 68.7027 61.0302 68.4668C61.2418 68.2309 61.3588 67.9252 61.3588 67.6084C61.3588 67.2915 61.2418 66.9858 61.0302 66.75C60.8187 66.5141 60.5274 66.3647 60.2124 66.3303H58.5109V68.8864Z"
        fill="white" />
    <path
        d="M75.9196 69.1663C75.9409 69.8134 75.8316 70.4582 75.5981 71.0621C75.3647 71.666 75.0119 72.2167 74.5608 72.6812C74.1097 73.1456 73.5696 73.5144 72.9728 73.7655C72.376 74.0165 71.7347 74.1447 71.0872 74.1423H67.1094V64.1751H71.0872C71.7347 64.1727 72.376 64.3009 72.9728 64.5519C73.5696 64.803 74.1097 65.1718 74.5608 65.6362C75.0119 66.1007 75.3647 66.6514 75.5981 67.2553C75.8316 67.8592 75.9409 68.504 75.9196 69.1511M73.734 69.1511C73.7653 68.7894 73.7194 68.4251 73.5994 68.0824C73.4793 67.7397 73.2878 67.4265 73.0376 67.1634C72.7873 66.9003 72.484 66.6933 72.1478 66.5562C71.8116 66.4191 71.4501 66.355 71.0872 66.3682H69.3781V71.9417H71.0796C71.4425 71.9548 71.804 71.8907 72.1403 71.7536C72.4765 71.6165 72.7798 71.4096 73.03 71.1465C73.2802 70.8834 73.4717 70.5701 73.5918 70.2274C73.7119 69.8847 73.7578 69.5205 73.7265 69.1587"
        fill="white" />
    <path
        d="M85.4406 71.9575V74.143H79.1865V64.1985H85.365V66.384H81.4628V68.0326H85.0096V70.1955H81.4628V71.9575H85.4406Z"
        fill="white" />
    <path
        d="M88.0654 71.8812L90.0241 70.7469C90.1768 71.1709 90.4626 71.534 90.8388 71.7821C91.215 72.0302 91.6614 72.1499 92.1113 72.1232C93.1927 72.1232 93.465 71.6997 93.465 71.314C93.465 70.7015 92.8978 70.4595 91.408 70.0511C89.9182 69.6427 88.4814 68.9319 88.4814 67.0262C88.4814 65.1204 90.0997 64.0012 91.8239 64.0012C92.5867 63.9771 93.3394 64.1798 93.9869 64.5836C94.6345 64.9875 95.1476 65.5743 95.4615 66.2699L93.5406 67.3892C93.4139 67.0399 93.1791 66.7402 92.8704 66.5334C92.5617 66.3267 92.1951 66.2238 91.8239 66.2397C91.1131 66.2397 90.7576 66.5951 90.7576 66.9959C90.7576 67.3967 90.9996 67.7521 92.5499 68.2361C94.1002 68.7201 95.7488 69.2193 95.7488 71.3216C95.7488 73.2424 94.2363 74.3466 92.0508 74.3466C89.8653 74.3466 88.625 73.3559 88.073 71.8888"
        fill="white" />
    <path
        d="M104.256 74.143L101.072 69.5375V74.143H98.7959V64.1985H101.072V68.5166L104.112 64.1985H106.699L103.341 69.046L106.842 74.143H104.256Z"
        fill="white" />
    <path d="M109.18 64.6295H110.329V68.0175H110.783V64.6295H111.925V64.1985H109.18V64.6295Z" fill="white" />
    <path
        d="M116.492 64.1985L115.244 66.2706L114.012 64.2363L113.989 64.1985H113.505V68.0175H113.959V65.0001L115.169 67.0117H115.32L116.53 65.0001V68.0175H116.976V64.1985H116.492Z"
        fill="white" />
</svg>