<svg width="114" height="114" viewBox="0 0 114 114" fill="none" xmlns="http://www.w3.org/2000/svg">
<path fill-rule="evenodd" clip-rule="evenodd" d="M71.5217 39.855C69.0483 42.3283 69.0483 46.3384 71.5217 48.8117L98.71 76L71.5217 103.188C69.0483 105.662 69.0483 109.672 71.5217 112.145C73.995 114.618 78.005 114.618 80.4783 112.145L112.145 80.4783C114.618 78.005 114.618 73.995 112.145 71.5217L80.4783 39.855C78.005 37.3817 73.995 37.3817 71.5217 39.855Z" fill="#2E59F5"/>
<path fill-rule="evenodd" clip-rule="evenodd" d="M6.33333 -9.41252e-06C2.83553 -9.71831e-06 -3.10891e-06 2.83552 -3.4147e-06 6.33332L-7.29044e-06 50.6667C-8.02467e-06 59.0652 3.33629 67.1197 9.27494 73.0584C15.2136 78.997 23.2681 82.3333 31.6667 82.3333L107.667 82.3333C111.164 82.3333 114 79.4978 114 76C114 72.5022 111.164 69.6667 107.667 69.6667L31.6667 69.6667C26.6275 69.6667 21.7948 67.6649 18.2316 64.1017C14.6684 60.5385 12.6667 55.7058 12.6667 50.6667L12.6667 6.33332C12.6667 2.83552 9.83114 -9.10673e-06 6.33333 -9.41252e-06Z" fill="#2E59F5"/>
</svg>
