<svg width="212" height="48" viewBox="0 0 212 48" fill="none" xmlns="http://www.w3.org/2000/svg">
<path d="M50.7374 17.2999C48.9607 15.5252 46.5522 14.5283 44.0409 14.5283C41.5297 14.5283 39.1212 15.5252 37.3444 17.2999L22.5902 32.0541C20.912 33.8496 19.997 36.227 20.0385 38.6844C20.08 41.1418 21.0747 43.4869 22.8125 45.2248C24.5504 46.9627 26.8955 47.9573 29.3529 47.9988C31.8103 48.0403 34.1877 47.1253 35.9832 45.4471L50.7374 30.7004C52.5121 28.9237 53.509 26.5152 53.509 24.0039C53.509 21.4927 52.5121 19.0842 50.7374 17.3074" fill="#3998FF"/>
<path d="M77.0696 23.9774C77.0667 25.8434 76.5106 27.6666 75.4717 29.2167C74.4329 30.7667 72.9578 31.9741 71.233 32.6861C69.5082 33.3981 67.6111 33.5828 65.7813 33.217C63.9515 32.8511 62.2713 31.951 60.9529 30.6305C59.6345 29.31 58.7371 27.6283 58.3742 25.798C58.0112 23.9676 58.199 22.0707 58.9138 20.3471C59.6285 18.6234 60.8382 17.1503 62.3899 16.1139C63.9417 15.0776 65.7658 14.5244 67.6318 14.5244C70.1362 14.5284 72.5368 15.5261 74.3063 17.2985C76.0758 19.0708 77.0697 21.4729 77.0696 23.9774Z" fill="#6BF7AA"/>
<path d="M50.7374 30.7003C49.8582 31.5799 48.8142 32.2777 47.6652 32.7538C46.5162 33.2299 45.2847 33.475 44.0409 33.475C42.7972 33.475 41.5657 33.2299 40.4167 32.7538C39.2676 32.2777 38.2237 31.5799 37.3444 30.7003L22.5902 15.946C20.912 14.1505 19.997 11.7731 20.0385 9.31575C20.08 6.85837 21.0747 4.51324 22.8125 2.77536C24.5504 1.03749 26.8955 0.0428333 29.3529 0.00135135C31.8103 -0.0401306 34.1877 0.874804 35.9832 2.55304L50.7374 17.2997C51.6171 18.179 52.3149 19.2229 52.791 20.3719C53.2671 21.5209 53.5121 22.7525 53.5121 23.9962C53.5121 25.2399 53.2671 26.4715 52.791 27.6205C52.3149 28.7695 51.6171 29.8135 50.7374 30.6927" fill="#3998FF"/>
<path d="M53.4673 23.0924C53.2961 21.3027 52.6193 19.5987 51.5159 18.1793C50.4125 16.7598 48.9281 15.6836 47.236 15.0762C45.5438 14.4688 43.7138 14.3553 41.9596 14.749C40.2054 15.1427 38.5994 16.0274 37.3291 17.2996L30.644 23.9772L37.3291 30.7002C38.5441 31.9165 40.0674 32.7791 41.7355 33.1954C43.4036 33.6116 45.1535 33.5658 46.7975 33.0629C48.4416 32.56 49.9176 31.6189 51.0674 30.3407C52.2171 29.0624 52.9971 27.4953 53.3236 25.8073C53.3841 25.5099 53.427 25.2099 53.4522 24.9074C53.4774 24.6049 53.4925 24.3024 53.4975 23.9999C53.4975 23.6974 53.4824 23.3949 53.4522 23.0924" fill="#2E59F5"/>
<path d="M0.0466358 23.0923C0.222497 21.3087 0.900547 19.6116 2.00209 18.1979C3.10364 16.7843 4.58351 15.7119 6.26995 15.1055C7.9564 14.499 9.78026 14.3832 11.5299 14.7715C13.2795 15.1599 14.8831 16.0364 16.1545 17.2995L22.8699 23.9771L16.1545 30.7C14.9395 31.9164 13.4163 32.779 11.7482 33.1952C10.0801 33.6115 8.33016 33.5657 6.68614 33.0627C5.04211 32.5598 3.56604 31.6187 2.41632 30.3405C1.2666 29.0623 0.486621 27.4951 0.160071 25.8072C0.0995723 25.5097 0.0567186 25.2097 0.0315106 24.9072C0.00630264 24.6047 -0.00378125 24.2947 0.00126035 23.9771C0.00126035 23.6746 0.0163862 23.3721 0.0466358 23.0696" fill="#ED2B7A"/>
<path d="M104.518 24.296C104.55 24.9472 104.444 25.5978 104.209 26.2056C103.973 26.8134 103.612 27.3648 103.149 27.8241C102.686 28.2833 102.132 28.6401 101.522 28.8713C100.913 29.1025 100.261 29.203 99.6102 29.1662C98.9164 29.2009 98.2227 29.0954 97.5705 28.8562C96.9184 28.617 96.3211 28.2489 95.8143 27.7738C95.3074 27.2987 94.9015 26.7264 94.6207 26.091C94.3399 25.4556 94.1899 24.7702 94.1798 24.0756C94.1696 23.381 94.2994 22.6915 94.5616 22.0482C94.8237 21.4049 95.2127 20.8209 95.7054 20.3312C96.1981 19.8415 96.7843 19.456 97.4292 19.1978C98.0741 18.9396 98.7644 18.814 99.4589 18.8284C100.316 18.8096 101.164 19.0078 101.924 19.4044C102.685 19.801 103.332 20.3832 103.807 21.0971L101.871 22.2088C101.594 21.8292 101.228 21.5242 100.804 21.3209C100.381 21.1177 99.9132 21.0226 99.4438 21.0441C99.0555 21.0571 98.6736 21.1463 98.3198 21.3069C97.9659 21.4674 97.6472 21.696 97.3818 21.9797C97.1163 22.2634 96.9094 22.5966 96.7727 22.9603C96.636 23.324 96.5723 23.7111 96.5852 24.0994C96.5981 24.4877 96.6874 24.8696 96.8479 25.2234C97.0085 25.5772 97.2371 25.896 97.5208 26.1614C97.8045 26.4269 98.1377 26.6338 98.5014 26.7705C98.8651 26.9072 99.2521 26.9709 99.6404 26.9579C100.17 27.0132 100.704 26.8959 101.162 26.6233C101.62 26.3508 101.977 25.9377 102.181 25.4455H99.5346V23.4263H104.526L104.518 24.296Z" fill="white"/>
<path d="M113.54 27.4038H109.842L109.366 28.9692H106.863L110.243 19.002H113.147L116.527 28.9465H114.039L113.54 27.4038ZM112.86 25.2712L111.695 21.6185L110.523 25.2787L112.86 25.2712Z" fill="white"/>
<path d="M118.652 26.7081L120.611 25.5738C120.764 25.9978 121.05 26.3609 121.426 26.609C121.802 26.8571 122.248 26.9768 122.698 26.9501C123.78 26.9501 124.052 26.5266 124.052 26.1409C124.052 25.5284 123.485 25.2864 121.995 24.878C120.505 24.4696 119.068 23.7588 119.068 21.8531C119.068 19.9473 120.687 18.8281 122.411 18.8281C123.174 18.804 123.926 19.0067 124.574 19.4105C125.221 19.8144 125.735 20.4012 126.048 21.0968L124.128 22.2161C124.001 21.8668 123.766 21.5671 123.457 21.3603C123.149 21.1536 122.782 21.0507 122.411 21.0666C121.7 21.0666 121.345 21.422 121.345 21.8228C121.345 22.2236 121.587 22.5791 123.137 23.063C124.687 23.547 126.336 24.0462 126.336 26.1485C126.336 28.0693 124.823 29.1735 122.638 29.1735C120.452 29.1735 119.197 28.1752 118.652 26.7081Z" fill="white"/>
<path d="M136.628 22.4353C136.622 22.8855 136.527 23.3301 136.349 23.7436C136.171 24.157 135.913 24.5312 135.59 24.8446C135.266 25.158 134.884 25.4044 134.466 25.5698C134.047 25.7352 133.6 25.8162 133.149 25.8082H131.637V28.9314H129.368V19.002H133.149C133.603 18.994 134.053 19.0762 134.474 19.2439C134.896 19.4116 135.279 19.6615 135.603 19.9789C135.927 20.2963 136.184 20.6749 136.36 21.0928C136.536 21.5106 136.627 21.9593 136.628 22.4126M134.359 22.4126C134.368 22.2484 134.342 22.0841 134.285 21.9299C134.228 21.7756 134.141 21.6345 134.027 21.5151C133.914 21.3956 133.778 21.3003 133.627 21.2349C133.476 21.1695 133.314 21.1354 133.149 21.1346H131.637V23.6907H133.149C133.471 23.6789 133.775 23.5402 133.995 23.3049C134.214 23.0697 134.332 22.757 134.322 22.4353" fill="white"/>
<path d="M144.591 27.4038H140.893L140.372 28.9692H137.914L141.294 19.002H144.191L147.571 28.9465H145.083L144.591 27.4038ZM143.911 25.2712L142.746 21.6185L141.574 25.2787L143.911 25.2712Z" fill="white"/>
<path d="M153.772 25.7022H152.691V28.9692H150.422V19.002H154.4C154.848 19.001 155.292 19.0885 155.706 19.2595C156.12 19.4306 156.497 19.6818 156.814 19.9987C157.131 20.3156 157.382 20.692 157.553 21.1062C157.724 21.5205 157.811 21.9644 157.81 22.4126C157.8 23.0147 157.623 23.6022 157.301 24.1106C156.978 24.6189 156.521 25.0283 155.98 25.2939L158.098 28.9465H155.648L153.772 25.7022ZM152.691 23.7133H154.392C154.707 23.679 154.998 23.5296 155.21 23.2937C155.422 23.0578 155.539 22.7521 155.539 22.4353C155.539 22.1184 155.422 21.8127 155.21 21.5769C154.998 21.341 154.707 21.1916 154.392 21.1572H152.691V23.7133Z" fill="white"/>
<path d="M170.099 23.9932C170.121 24.6403 170.011 25.2851 169.778 25.889C169.544 26.4929 169.192 27.0436 168.741 27.5081C168.29 27.9726 167.749 28.3413 167.153 28.5924C166.556 28.8434 165.914 28.9716 165.267 28.9692H161.289V19.002H165.267C165.914 18.9996 166.556 19.1278 167.153 19.3788C167.749 19.6299 168.29 19.9987 168.741 20.4631C169.192 20.9276 169.544 21.4783 169.778 22.0822C170.011 22.6861 170.121 23.3309 170.099 23.978M167.914 23.978C167.945 23.6163 167.899 23.252 167.779 22.9093C167.659 22.5667 167.468 22.2534 167.217 21.9903C166.967 21.7272 166.664 21.5202 166.328 21.3831C165.991 21.246 165.63 21.1819 165.267 21.1951H163.558V26.7686H165.259C165.622 26.7817 165.984 26.7176 166.32 26.5805C166.656 26.4434 166.96 26.2365 167.21 25.9734C167.46 25.7103 167.652 25.397 167.772 25.0543C167.892 24.7116 167.938 24.3474 167.906 23.9856" fill="white"/>
<path d="M179.62 26.7839V28.9695H173.366V19.0249H179.545V21.2104H175.642V22.859H179.189V25.0219H175.642V26.7839H179.62Z" fill="white"/>
<path d="M182.245 26.7081L184.203 25.5738C184.356 25.9978 184.642 26.3609 185.018 26.609C185.394 26.8571 185.841 26.9768 186.291 26.9501C187.372 26.9501 187.644 26.5266 187.644 26.1409C187.644 25.5284 187.077 25.2864 185.587 24.878C184.097 24.4696 182.661 23.7588 182.661 21.8531C182.661 19.9473 184.279 18.8281 186.003 18.8281C186.766 18.804 187.519 19.0067 188.166 19.4105C188.814 19.8144 189.327 20.4012 189.641 21.0968L187.72 22.2161C187.593 21.8668 187.358 21.5671 187.05 21.3603C186.741 21.1536 186.374 21.0507 186.003 21.0666C185.292 21.0666 184.937 21.422 184.937 21.8228C184.937 22.2236 185.179 22.5791 186.729 23.063C188.279 23.547 189.928 24.0462 189.928 26.1485C189.928 28.0693 188.416 29.1735 186.23 29.1735C184.044 29.1735 182.804 28.1828 182.252 26.7157" fill="white"/>
<path d="M198.436 28.9695L195.252 24.364V28.9695H192.976V19.0249H195.252V23.343L198.292 19.0249H200.878L197.521 23.8724L201.022 28.9695H198.436Z" fill="white"/>
<path d="M203.359 19.456H204.508V22.8439H204.962V19.456H206.104V19.0249H203.359V19.456Z" fill="white"/>
<path d="M210.672 19.0249L209.424 21.097L208.191 19.0627L208.168 19.0249H207.684V22.8439H208.138V19.8265L209.348 21.8381H209.499L210.709 19.8265V22.8439H211.156V19.0249H210.672Z" fill="white"/>
</svg>
