<svg width="12" height="12" viewBox="0 0 12 12" fill="none" xmlns="http://www.w3.org/2000/svg">
    <path fill-rule="evenodd" clip-rule="evenodd"
        d="M1 0.5C1 0.223858 0.776143 0 0.5 0C0.223858 0 0 0.223858 0 0.5L0 11.5C0 11.7761 0.223858 12 0.5 12L11.5 12C11.7761 12 12 11.7761 12 11.5C12 11.2239 11.7761 11 11.5 11L1.95041 11C1.86132 11 1.8167 10.8923 1.8797 10.8293L11.8476 0.861366C12.0429 0.666104 12.0429 0.349522 11.8476 0.154259C11.6524 -0.0410028 11.3358 -0.0410029 11.1405 0.154259L1.17071 10.1241C1.10771 10.1871 1 10.1424 1 10.0533L1 0.5Z"
        fill="#2E59F5" />
</svg>