<svg width="14" height="14" viewBox="0 0 14 14" fill="none" xmlns="http://www.w3.org/2000/svg">
    <path fill-rule="evenodd" clip-rule="evenodd"
        d="M1.66634 6.3335C1.66634 3.75617 3.75568 1.66683 6.33301 1.66683C8.91034 1.66683 10.9997 3.75617 10.9997 6.3335C10.9997 7.5917 10.5017 8.7336 9.69219 9.5729C9.67009 9.59002 9.64882 9.60873 9.62853 9.62902C9.60824 9.64931 9.58954 9.67058 9.57241 9.69268C8.73311 10.5022 7.59121 11.0002 6.33301 11.0002C3.75568 11.0002 1.66634 8.91083 1.66634 6.3335ZM10.0781 11.0214C9.05169 11.8425 7.74968 12.3335 6.33301 12.3335C3.0193 12.3335 0.333008 9.64721 0.333008 6.3335C0.333008 3.01979 3.0193 0.333496 6.33301 0.333496C9.64672 0.333496 12.333 3.01979 12.333 6.3335C12.333 7.75017 11.842 9.05217 11.0209 10.0786L13.4713 12.529C13.7317 12.7894 13.7317 13.2115 13.4713 13.4718C13.211 13.7322 12.7889 13.7322 12.5285 13.4718L10.0781 11.0214Z"
        fill="#6BF7AA" />
</svg>