<svg width="20" height="20" viewBox="0 0 20 20" fill="none" xmlns="http://www.w3.org/2000/svg">
<path fill-rule="evenodd" clip-rule="evenodd" d="M14 3.9964C14 6.20355 12.2091 7.99279 10 7.99279C7.79086 7.99279 6 6.20355 6 3.9964C6 1.78925 7.79086 0 10 0C12.2091 0 14 1.78925 14 3.9964ZM13 3.9964C13 5.65176 11.6569 6.9937 10 6.9937C8.34315 6.9937 7 5.65176 7 3.9964C7 2.34104 8.34315 0.999099 10 0.999099C11.6569 0.999099 13 2.34104 13 3.9964Z" fill="#F8F7F7"/>
<path fill-rule="evenodd" clip-rule="evenodd" d="M20 19.0009L20.0001 18.0018C20.0001 14.0002 17.6454 10.548 14.2448 8.95293C13.9209 8.80098 13.5445 8.86479 13.2436 9.05835C12.3083 9.65996 11.1949 10.009 9.99989 10.009C8.80494 10.009 7.69157 9.66 6.75634 9.05844C6.45544 8.86489 6.07905 8.80109 5.7551 8.95305C2.35467 10.5482 8.79096e-05 14.0003 8.79096e-05 18.0018L9.55151e-09 19.0009C-7.55028e-05 19.5527 0.447608 20 0.999893 20L18.9999 20C19.5522 20 19.9999 19.5527 20 19.0009ZM1.00009 18.0018C1.00009 14.4124 3.10509 11.3122 6.15335 9.87004C6.15757 9.87113 6.16276 9.87271 6.16884 9.87498C6.18236 9.88002 6.19823 9.8877 6.21503 9.8985C7.30682 10.6008 8.60727 11.0081 9.99989 11.0081C11.3926 11.0081 12.6931 10.6007 13.7849 9.8984C13.8017 9.88759 13.8176 9.87992 13.8311 9.87487C13.8372 9.87261 13.8424 9.87102 13.8466 9.86993C16.895 11.3121 19.0001 14.4123 19.0001 18.0017L19 19.0008L1 19.0009L1.00009 18.0018Z" fill="#F8F7F7"/>
</svg>
